<svg viewBox="0 0 42 47" xmlns="http://www.w3.org/2000/svg"><path d="M38.9288 47C38.3187 47.0034 37.7217 46.8237 37.2152 46.4842C36.7087 46.1447 36.3161 45.6611 36.0883 45.096L32.5581 36.488C32.5356 36.4311 32.4965 36.3823 32.4458 36.348C32.3951 36.3137 32.3353 36.2954 32.274 36.2956H9.67217C9.61233 36.296 9.55405 36.3147 9.50511 36.3491C9.45618 36.3835 9.41888 36.4319 9.39825 36.488L5.90855 45.096C5.68144 45.6594 5.2904 46.142 4.7859 46.4813C4.2814 46.8207 3.68661 47.0014 3.07827 47C2.67032 46.9992 2.26667 46.9165 1.89135 46.7569C1.13681 46.4353 0.539895 45.8294 0.230279 45.0709C-0.0793369 44.3124 -0.0766483 43.4626 0.237802 42.7061L4.46805 32.508L16.7124 2.84572C18.1428 -2.41449e-06 19.6644 0 21.0035 0C22.3426 0 23.8541 1.73843e-05 25.2946 2.86599L37.5288 32.508L41.7591 42.7061C42.0763 43.4623 42.0804 44.3132 41.7705 45.0724C41.4606 45.8317 40.8619 46.4374 40.1055 46.7569C39.7342 46.9179 39.3336 47.0006 38.9288 47ZM21.0035 8.51691C20.9416 8.51365 20.8804 8.53069 20.8291 8.56543C20.7778 8.60017 20.7393 8.65071 20.7195 8.70933L12.0967 30.1889C12.0717 30.232 12.0586 30.281 12.0586 30.3307C12.0586 30.3805 12.0717 30.4294 12.0967 30.4725C12.1249 30.5135 12.1628 30.5469 12.207 30.5699C12.2513 30.5929 12.3004 30.6046 12.3503 30.6041H29.5959C29.6455 30.6038 29.6944 30.5916 29.7385 30.5688C29.7826 30.5459 29.8206 30.5129 29.8495 30.4725C29.8696 30.4279 29.8801 30.3796 29.8801 30.3307C29.8801 30.2818 29.8696 30.2335 29.8495 30.1889L21.2267 8.70933C21.2128 8.66557 21.1892 8.62552 21.1575 8.59219C21.1259 8.55887 21.0871 8.53312 21.0441 8.51691H21.0035Z"/></svg>