<svg viewBox="0 0 48 47" xmlns="http://www.w3.org/2000/svg"><path d="M19.0134 46.9312H1.87441C1.56475 46.9286 1.26044 46.8503 0.988061 46.7031C0.715683 46.5558 0.483498 46.3443 0.311827 46.0867C0.22272 45.9588 0.150109 45.8202 0.0956531 45.6742C0.015065 45.4648 -0.0152557 45.2395 0.00718004 45.0163V44.8788C0.00718004 44.7708 0.00718004 44.6628 0.00718004 44.5548C0.0759719 44.0736 1.77613 35.0291 2.29698 32.2696V32.1713C2.33631 31.8605 2.47009 31.5691 2.68027 31.3366C2.86622 31.1105 3.10037 30.9288 3.36562 30.8048C3.63086 30.6808 3.9205 30.6176 4.21334 30.6198H5.95275V28.7735C5.974 28.3463 6.13433 27.9376 6.40927 27.6097C6.68422 27.2817 7.05879 27.0525 7.47605 26.9567H7.76102H9.91323V24.0107L8.35064 23.8339L7.3679 23.7062L6.3262 23.5393C5.75621 23.4411 5.15674 23.3232 4.36072 23.1366L3.59421 22.9501C3.20874 22.8458 2.83107 22.7145 2.46403 22.5573C2.11416 22.4139 1.81314 22.1728 1.597 21.8627C1.38085 21.5527 1.25877 21.1869 1.24544 20.8092C1.23562 20.6195 1.23562 20.4294 1.24544 20.2397C1.25274 19.9716 1.3149 19.7077 1.42815 19.4645C1.54139 19.2213 1.70329 19.0039 1.90386 18.8256C2.19959 18.5581 2.56979 18.3868 2.96524 18.3346L3.71213 18.2265C4.16419 18.161 4.61626 18.0825 5.06832 17.9908C5.82503 17.8435 6.60136 17.6668 7.3679 17.4704C8.35064 17.2052 9.16632 16.9695 9.89355 16.7142C10.7452 16.4172 11.5731 16.0562 12.3701 15.634V15.4768V11.7451L11.1417 11.6273L10.0508 11.4898L8.84201 11.313L7.45637 11.0479L5.68745 10.6453C5.44177 10.5765 5.18624 10.5078 4.94056 10.4194C4.67551 10.329 4.43389 10.1807 4.23331 9.98534C4.03274 9.79 3.87823 9.5525 3.78093 9.29005C3.72152 9.11886 3.68518 8.94055 3.67284 8.75978C3.65311 8.46222 3.65311 8.16366 3.67284 7.8661C3.68662 7.45549 3.8342 7.06061 4.0932 6.74154C4.35219 6.42246 4.70839 6.19666 5.10761 6.09846C5.2319 6.08888 5.35676 6.08888 5.48105 6.09846H6.27707L7.25981 6.01011L7.86911 5.93153H8.09518C8.57476 5.86984 9.05045 5.7813 9.52011 5.66636C11.1586 5.30363 12.744 4.7327 14.2373 3.96747C14.9115 3.6179 15.5675 3.23443 16.2028 2.81851L17.1855 2.14091V1.81683C17.1773 1.59064 17.221 1.36559 17.3133 1.15888C17.4264 0.856684 17.618 0.589998 17.8685 0.386338C18.1189 0.182678 18.4191 0.0493406 18.7382 3.55095e-05H19.0822C19.4919 -0.00242589 19.892 0.123131 20.2268 0.359066C20.5616 0.595001 20.8142 0.929547 20.9494 1.31598C20.9969 1.47254 21.0266 1.63395 21.0379 1.79717L21.3032 1.88557C21.8786 2.09195 22.4703 2.24961 23.0721 2.35693C23.3479 2.40542 23.6275 2.42844 23.9074 2.42568H24.4971C24.9276 2.39016 25.3492 2.28398 25.7452 2.11142L26.2759 1.87574C26.3059 1.4127 26.499 0.975239 26.821 0.640896C27.143 0.306553 27.5731 0.096935 28.035 0.0491849H28.2119C28.3392 0.0348326 28.4678 0.0348326 28.5951 0.0491849C28.7436 0.0800739 28.8885 0.126099 29.0275 0.186623C29.3903 0.345137 29.6944 0.61316 29.897 0.953055C30.0997 1.29295 30.1908 1.68772 30.1577 2.08199V2.18017H30.2363C30.3135 2.24532 30.3957 2.30441 30.482 2.35693C32.287 3.55868 34.2432 4.51632 36.2998 5.20484C37.0091 5.44072 37.7309 5.63739 38.4618 5.79403L39.4937 5.98062C39.8573 5.98062 40.2112 6.069 40.5846 6.09846C40.958 6.12792 41.2332 6.09846 41.5673 6.09846H41.872C42.3532 6.09434 42.8181 6.27227 43.1736 6.59649C43.529 6.9207 43.7486 7.36724 43.7883 7.8465C43.8177 8.15022 43.8177 8.45606 43.7883 8.75978C43.7978 8.87087 43.7978 8.98254 43.7883 9.09364C43.7338 9.38369 43.6071 9.65542 43.4199 9.88368C43.2327 10.1119 42.991 10.2894 42.7171 10.3998C42.6352 10.4379 42.5496 10.4675 42.4616 10.4882C41.7147 10.7337 41.0661 10.9202 40.3782 11.0774C40.0048 11.1625 39.6215 11.241 39.2284 11.313C38.8451 11.3916 38.4619 11.4505 38.0688 11.5094C37.6757 11.5684 37.43 11.6077 37.086 11.6371L35.9067 11.7746L35.15 11.8433V15.7027C35.9379 16.1487 36.7673 16.517 37.6265 16.8026C38.7174 17.166 39.8377 17.49 40.958 17.7846C41.5575 17.9221 42.1668 18.0498 42.7761 18.1578L43.9455 18.3542L44.3092 18.4131C44.4909 18.4363 44.6713 18.4691 44.8497 18.5113C45.21 18.5963 45.5369 18.7863 45.7888 19.0574C46.0408 19.3284 46.2065 19.6681 46.2648 20.0335C46.2908 20.1531 46.3072 20.2746 46.3139 20.3968V20.5048C46.3139 20.6914 46.3139 20.8682 46.3139 21.0547C46.3044 21.3526 46.218 21.6431 46.063 21.8977C45.908 22.1524 45.6898 22.3627 45.4295 22.5082C44.8717 22.8428 44.2648 23.088 43.6311 23.2349L42.3142 23.5295C41.8621 23.6179 41.4003 23.7062 40.9384 23.775L39.9556 23.9027H39.5134L38.737 23.9812L37.6658 24.0991V27.1041H39.7787C40.2009 27.0957 40.6138 27.2283 40.952 27.4809C41.2902 27.7334 41.5344 28.0916 41.6459 28.4985C41.6864 28.6325 41.7095 28.7711 41.7147 28.911C41.72 28.9894 41.72 29.0682 41.7147 29.1467V30.7965H43.8178C44.12 30.8118 44.4142 30.899 44.6758 31.0511C44.9373 31.2031 45.1587 31.4155 45.3214 31.6705C45.419 31.8122 45.4859 31.9728 45.5179 32.1419C45.626 32.6624 47.9355 44.6235 47.9551 44.6922C48.0556 45.1456 47.986 45.62 47.7595 46.0255C47.5331 46.431 47.1656 46.7393 46.7267 46.8919C46.5282 46.9636 46.3187 47.0002 46.1076 47H28.9096C28.4677 46.9899 28.0421 46.8313 27.7015 46.5498C27.361 46.2683 27.1253 45.8802 27.0326 45.4484C27.0185 45.3178 27.0185 45.1861 27.0326 45.0555C27.0326 43.4745 27.0326 41.864 27.0326 40.2535C27.0342 39.9638 26.9911 39.6756 26.9048 39.3991C26.7527 38.9118 26.4789 38.4713 26.1093 38.1191C25.7396 37.7669 25.2862 37.5145 24.7919 37.3859C24.5476 37.3243 24.297 37.2913 24.045 37.2877C23.9241 37.2776 23.8024 37.2776 23.6814 37.2877C23.0455 37.3552 22.4488 37.6275 21.9813 38.0635C21.511 38.4865 21.1933 39.0525 21.0771 39.674C21.0376 39.8447 21.0178 40.0194 21.0182 40.1945C21.0182 40.1945 21.0182 45.0163 21.0182 45.1047C21.0166 45.3834 20.9533 45.6583 20.8326 45.9097C20.712 46.161 20.5371 46.3824 20.3205 46.5581C19.9707 46.8431 19.5335 46.9991 19.0822 47L19.0134 46.9312ZM24.0155 33.1043C24.5719 33.1011 25.1265 33.1671 25.6666 33.3007C26.6734 33.5518 27.6109 34.0253 28.4103 34.6864C29.2096 35.3475 29.8504 36.1794 30.2854 37.1208C30.6584 37.9396 30.8655 38.824 30.8947 39.7231V42.9933H43.7687C43.6409 42.1684 42.5697 35.4218 42.4419 34.5773H39.9556C39.4816 34.5785 39.0249 34.3994 38.6781 34.0765C38.4875 33.9071 38.3342 33.7001 38.2276 33.4685C38.1211 33.237 38.0636 32.9859 38.0589 32.7311V30.8259H9.96235V31.042C9.96235 31.533 9.96235 32.0241 9.96235 32.5151C9.96235 33.036 9.75531 33.5355 9.38671 33.9038C9.01811 34.2722 8.51815 34.4791 7.99687 34.4791H5.58914L4.28214 42.8853C7.01416 42.8853 16.2028 42.9442 17.0578 42.954V40.6364C17.0578 40.1749 17.0578 39.7232 17.0578 39.2714C17.114 38.9723 17.1895 38.677 17.2838 38.3876C17.6424 36.9178 18.4762 35.6072 19.656 34.6591C20.8358 33.711 22.2956 33.1783 23.8092 33.1435L24.0155 33.1043ZM34.069 26.9077V24.3151L32.7915 24.3937L30.6097 24.5115L27.8875 24.6097H26.5019H25.2636H22.0599L19.495 24.5508L17.5295 24.4722L16.0161 24.4035L13.972 24.266V26.8684L34.069 26.9077ZM12.2226 20.279L13.2054 20.3575L15.4952 20.5048L16.8415 20.5736H17.0184L18.9839 20.662H20.5072H20.9003C21.3425 20.662 21.7946 20.662 22.2466 20.662H26.4528H28.261H29.686L31.3271 20.5932L33.9117 20.4459L35.2679 20.3477H35.4154L36.2212 20.2888H36.1131C35.0312 19.8932 34.0118 19.3441 33.0863 18.6586C33.0458 18.6261 32.9989 18.6027 32.9487 18.5899H15.0333L14.9252 18.6684C14.7483 18.8059 14.5813 18.9237 14.4142 19.0318C13.6014 19.5221 12.7502 19.9458 11.8689 20.2986L12.2226 20.279ZM31.563 14.5635V12.0299L30.7965 12.0888L29.5779 12.1478L27.7893 12.2361H26.2365H24.2219H23.7502C22.8559 12.2361 21.9616 12.2361 21.0771 12.2361H19.9175L18.3058 12.1674L16.4485 12.0496V14.5832L31.563 14.5635ZM15.9079 8.07235L16.989 8.15093L18.237 8.21968L19.8881 8.29819H21.2443L22.6397 8.35711H24.8018H25.5486L29.0767 8.20985L31.6514 8.06252L33.4204 7.93485C31.6568 7.19935 29.9821 6.26704 28.4281 5.15569C28.0872 5.3138 27.7359 5.44836 27.3766 5.55835C26.7836 5.74367 26.1751 5.8751 25.5584 5.95113C25.2327 5.99681 24.9046 6.02306 24.5757 6.02971H24.0843C23.7823 6.02977 23.4805 6.01339 23.1802 5.98062C22.7391 5.93632 22.302 5.85753 21.8732 5.74494C21.2976 5.59793 20.7301 5.42088 20.173 5.21461L19.721 5.04768C18.1248 6.19974 16.3959 7.15592 14.5714 7.89559L15.9079 8.07235Z"/></svg>