<svg viewBox="0 0 46 47" xmlns="http://www.w3.org/2000/svg"><path d="M38.675 2.99908C38.6979 2.61382 38.6417 2.22795 38.5096 1.86517C38.3775 1.5024 38.1724 1.17037 37.9069 0.889493C37.6413 0.608619 37.321 0.384845 36.9656 0.23188C36.6102 0.0789155 36.2271 0 35.84 0C35.4529 0 35.0698 0.0789155 34.7144 0.23188C34.3589 0.384845 34.0386 0.608619 33.7731 0.889493C33.5076 1.17037 33.3025 1.5024 33.1704 1.86517C33.0383 2.22795 32.982 2.61382 33.005 2.99908V44.0009C32.982 44.3862 33.0383 44.7721 33.1704 45.1348C33.3025 45.4976 33.5076 45.8296 33.7731 46.1105C34.0386 46.3914 34.3589 46.6152 34.7144 46.7681C35.0698 46.9211 35.4529 47 35.84 47C36.2271 47 36.6102 46.9211 36.9656 46.7681C37.321 46.6152 37.6413 46.3914 37.9069 46.1105C38.1724 45.8296 38.3775 45.4976 38.5096 45.1348C38.6417 44.7721 38.6979 44.3862 38.675 44.0009V25.7081H43.2896C44.0228 25.665 44.7118 25.3442 45.2156 24.8115C45.7194 24.2787 46 23.5742 46 22.8421C46 22.1099 45.7194 21.4054 45.2156 20.8726C44.7118 20.3399 44.0228 20.0191 43.2896 19.976H38.675V2.99908Z"/><path d="M26.4048 7.97507C26.6448 6.48971 26.1249 5.25358 24.6749 4.98442H2.56488C1.8707 5.02636 1.21872 5.33082 0.742065 5.83566C0.265413 6.34049 0 7.00765 0 7.70093C0 8.39422 0.265413 9.06136 0.742065 9.5662C1.21872 10.071 1.8707 10.3755 2.56488 10.4174H20.3232L15.8232 39.7358C15.7035 40.4396 15.9152 41.1622 16.3249 41.7477C16.7345 42.3332 17.461 42.7349 18.1649 42.866C18.8588 42.9604 19.7621 42.7792 20.3232 42.3615C20.8844 41.9438 21.2585 41.323 21.3649 40.633L26.4048 7.97507Z"/></svg>