<svg xmlns="http://www.w3.org/2000/svg" viewBox="0 0 18 18"><path style="fill-rule:evenodd;fill:#2B1600" d="M3,7v5c0,1.7,1.3,3,3,3h3c1.2-0.1,2.3-0.9,2.7-2H13c1.1,0,2-0.9,2-2v-1c0-1.1-0.9-2-2-2h-1V7H3zM4,8v4c0,1.1,0.9,2,2,2h3c1.1,0,2-0.9,2-2V8H4zM12,9v3h1c0.6,0,1-0.4,1-1v-1c0-0.6-0.4-1-1-1H12z"/><path style="fill:#808080" d="M10,8v4c0,1.1-0.9,2-2,2h1c1.1,0,2-0.9,2-2V8H10z"/><path style="fill:#DDC57F" d="M7,3v1C6.4,4,6,4.4,6,5v1h1V5c0.6,0,1-0.4,1-1V3H7z M9,3v1C8.4,4,8,4.4,8,5v1h1V5c0.6,0,1-0.4,1-1V3H9z"/><path style="fill:#FFFDF5" d="M10,12V8H4v4c0,1.1,0.9,2,2,2h2C9.1,14,10,13.1,10,12z"/></svg>