<svg viewBox="0 0 36 47" xmlns="http://www.w3.org/2000/svg"><path d="M35.1031 42.1039C34.8115 41.8419 34.4698 41.6405 34.0982 41.5117C33.7342 41.3814 33.3466 41.3282 32.9604 41.3555H8.43769L18.5945 28.0496L20.6707 25.3112C20.8179 25.1288 20.9381 24.9267 21.0278 24.7108C21.1796 24.3599 21.2586 23.9824 21.2604 23.6006C21.2546 23.2167 21.1758 22.8372 21.0278 22.4822C20.9233 22.2455 20.7864 22.0241 20.6209 21.8243L8.30484 5.60728H32.9604C33.7476 5.64541 34.5179 5.3734 35.1031 4.85071C35.3836 4.58857 35.6069 4.27231 35.7592 3.92144C35.9138 3.5682 35.9956 3.18797 36 2.80302C35.9934 2.4218 35.9145 2.04519 35.7674 1.69282C35.6115 1.34157 35.3887 1.0233 35.1114 0.755325C34.8198 0.49332 34.4781 0.291969 34.1065 0.163221C33.7424 0.0328609 33.3548 -0.020366 32.9687 0.00697598H3.01466C2.63127 -0.0199418 2.24647 0.0332894 1.88521 0.163221C1.51515 0.290025 1.17576 0.491664 0.888624 0.755325C0.609838 1.02388 0.38448 1.34189 0.224247 1.69282C0.0760145 2.04454 -0.000219468 2.4219 4.74561e-07 2.80302C-1.49587e-05 3.08116 0.0391295 3.35794 0.11628 3.62538C0.138853 3.75322 0.16935 3.87955 0.207621 4.00367C0.328005 4.37804 0.522845 4.72476 0.780657 5.0234L14.8989 23.6006L1.02148 41.8325C0.855734 42.0217 0.716099 42.2319 0.606237 42.4575C0.458166 42.6511 0.332831 42.8608 0.23256 43.0825C0.0834714 43.431 0.00717947 43.8059 0.00831342 44.1844C0.00721275 44.5683 0.0834596 44.9485 0.23256 45.3029C0.390848 45.6525 0.616519 45.9681 0.896937 46.2321C1.18193 46.4986 1.52197 46.7006 1.89353 46.8242C2.2546 46.9559 2.63862 47.0146 3.02297 46.9969H32.9687C33.3558 47.0142 33.7424 46.9555 34.1065 46.8242C34.4796 46.6987 34.822 46.497 35.1114 46.2321C35.3937 45.9716 35.6173 45.6549 35.7674 45.3029C35.9192 44.949 35.9982 44.5688 36 44.1844C35.9934 43.8032 35.9145 43.4266 35.7674 43.0743C35.6127 42.7106 35.387 42.3808 35.1031 42.1039Z"/></svg>