<svg viewBox="0 0 46 47" xmlns="http://www.w3.org/2000/svg"><path d="M31.034 0H14.966H11.9728C10.3172 0 8.97959 1.3127 8.97959 2.9375C8.97959 4.5623 10.3172 5.875 11.9728 5.875V18.0656C11.9728 19.1488 11.6641 20.2229 11.0842 21.1408L0.963435 37.2879C0.336735 38.2977 0 39.4451 0 40.6293C0 44.1451 2.90901 47 6.4915 47H39.5085C43.091 47 46 44.1451 46 40.6293C46 39.4543 45.6633 38.2977 45.0366 37.2879L34.9158 21.15C34.3359 20.2229 34.0272 19.158 34.0272 18.0748V5.875C35.6828 5.875 37.0204 4.5623 37.0204 2.9375C37.0204 1.3127 35.6828 0 34.0272 0H31.034ZM17.9592 18.0656V5.875H28.0408V18.0656C28.0408 20.2412 28.6582 22.3709 29.818 24.2252L33.0451 29.375H12.9549L16.182 24.2252C17.3418 22.3709 17.9592 20.2412 17.9592 18.0656Z"/></svg>