<svg viewBox="0 0 44 47" xmlns="http://www.w3.org/2000/svg"><path d="M8.73156 8.68804C8.32579 8.68606 7.92752 8.57802 7.57574 8.37451L2.78139 5.59315C2.24336 5.27097 1.85373 4.74781 1.69746 4.13775C1.54118 3.52768 1.63093 2.88018 1.94714 2.33643C2.15727 1.97015 2.45889 1.66548 2.82206 1.4526C3.18523 1.23971 3.59736 1.126 4.01764 1.12274C4.42342 1.12472 4.82174 1.23275 5.17353 1.43627L9.95782 4.21763C10.2261 4.37539 10.4607 4.58487 10.6484 4.83404C10.8361 5.08322 10.9731 5.3672 11.0515 5.66973C11.1299 5.97225 11.1483 6.28738 11.1055 6.59705C11.0627 6.90672 10.9595 7.20483 10.8021 7.47435C10.5919 7.84062 10.2904 8.1453 9.92721 8.35818C9.56403 8.57106 9.15185 8.68478 8.73156 8.68804Z"/><path d="M8.17878 23.2522C7.77301 23.2502 7.37474 23.1422 7.02295 22.9387L2.23867 20.1573C1.96966 20.003 1.73471 19.7952 1.54809 19.5465C1.36147 19.2979 1.22707 19.0136 1.15314 18.711C1.05741 18.354 1.04473 17.9797 1.11603 17.6169C1.18732 17.2542 1.34071 16.9128 1.56428 16.6194C1.78786 16.3259 2.07561 16.0883 2.40522 15.9248C2.73483 15.7613 3.0974 15.6765 3.46486 15.6768C3.86979 15.6753 4.26818 15.7798 4.62075 15.9802L9.4151 18.7616C9.95381 19.0857 10.3436 19.6107 10.4998 20.2224C10.656 20.8341 10.566 21.4831 10.2493 22.0284C10.0391 22.3947 9.7376 22.6994 9.37442 22.9123C9.01125 23.1252 8.59907 23.2388 8.17878 23.2421V23.2522Z"/><path d="M2.41954 44.785C2.03454 44.7849 1.65529 44.6912 1.31396 44.512C0.752414 44.2228 0.323804 43.7263 0.117886 43.1263C0.0206312 42.8303 -0.0170658 42.5177 0.00709472 42.2069C0.0312552 41.896 0.116742 41.5931 0.258554 41.3159L5.95752 30.059C6.1542 29.6716 6.45363 29.3465 6.82262 29.1198C7.19162 28.8931 7.61574 28.7736 8.04808 28.7745C8.43309 28.7747 8.8124 28.8684 9.15373 29.0476C9.43353 29.1869 9.68266 29.3813 9.88639 29.6194C10.0901 29.8574 10.2443 30.1341 10.3397 30.4332C10.4411 30.7264 10.4818 31.0374 10.4594 31.347C10.4369 31.6566 10.3517 31.9583 10.2091 32.2335L4.55035 43.5006C4.35367 43.888 4.05424 44.2131 3.68524 44.4398C3.31625 44.6665 2.89207 44.786 2.45973 44.785H2.41954Z"/><path d="M41.6687 46.9697C41.3211 46.9749 40.977 46.8988 40.6636 46.7472C34.633 43.9354 32.0901 42.6307 28.703 38.6559L28.5522 38.4739H26.4515L26.3008 38.6559C22.9337 42.7015 20.3606 43.9557 14.3602 46.7472C14.0473 46.9002 13.7029 46.9765 13.3551 46.9697C12.9711 46.966 12.5935 46.8701 12.2538 46.6901C11.914 46.51 11.6219 46.2509 11.4017 45.9344C11.1815 45.6178 11.0395 45.253 10.9877 44.8701C10.9359 44.4872 10.9756 44.0975 11.1036 43.7332C11.2062 43.441 11.3657 43.1724 11.5728 42.9432C11.7799 42.7139 12.0304 42.5286 12.3097 42.3981C13.3148 41.8621 14.1591 41.4373 14.9733 41.0428C16.0487 40.5169 17.0638 40.0314 18.0991 39.3942L19.6671 38.4536H14.3803C13.7739 38.414 13.2053 38.1437 12.7898 37.6976C12.3743 37.2515 12.1431 36.663 12.1431 36.0515C12.1431 35.4401 12.3743 34.8516 12.7898 34.4055C13.2053 33.9594 13.7739 33.6891 14.3803 33.6495H25.0946V31.6267H16.3905C15.7841 31.587 15.2155 31.3168 14.8 30.8706C14.3845 30.4245 14.1533 29.836 14.1533 29.2246C14.1533 28.6132 14.3845 28.0247 14.8 27.5785C15.2155 27.1324 15.7841 26.8621 16.3905 26.8225H25.0946V24.5468H17.0538C16.7464 24.5386 16.4432 24.4735 16.1593 24.3547C15.5815 24.1032 15.1237 23.6353 14.8828 23.05C14.7711 22.7596 14.7131 22.4511 14.7119 22.1397V15.0599C14.7131 14.7485 14.7711 14.44 14.8828 14.1496C15.0008 13.8585 15.175 13.5938 15.3954 13.3708C15.614 13.1496 15.874 12.974 16.1604 12.8542C16.4467 12.7345 16.7538 12.6729 17.0639 12.673H38.4146C38.7251 12.6727 39.0327 12.7346 39.3192 12.855C39.6061 12.9738 39.8662 13.1497 40.0838 13.3722C40.3015 13.5946 40.4721 13.8591 40.5856 14.1496C40.7069 14.4372 40.7652 14.7476 40.7565 15.0599V22.1397C40.763 22.4539 40.7068 22.7662 40.5911 23.058C40.4754 23.3499 40.3027 23.6155 40.0831 23.8389C39.6435 24.2913 39.0433 24.5496 38.4146 24.557H29.8688V26.8326H39.166C39.7724 26.8722 40.341 27.1425 40.7565 27.5886C41.172 28.0348 41.4032 28.6233 41.4032 29.2347C41.4032 29.8461 41.172 30.4346 40.7565 30.8807C40.341 31.3269 39.7724 31.5972 39.166 31.6368H29.8688V33.6596H41.1762C41.7826 33.6992 42.3512 33.9695 42.7667 34.4156C43.1822 34.8617 43.4134 35.4503 43.4134 36.0617C43.4134 36.6731 43.1822 37.2616 42.7667 37.7077C42.3512 38.1538 41.7826 38.4241 41.1762 38.4638H35.2763L36.8342 39.4044C37.8895 40.0415 38.9148 40.5371 40.0003 41.0732C40.8044 41.4676 41.6687 41.8924 42.6336 42.4183C43.1226 42.6519 43.5185 43.0455 43.7565 43.5347C43.9944 44.0239 44.0604 44.5799 43.9437 45.1118C43.8271 45.6437 43.5346 46.1201 43.114 46.463C42.6935 46.806 42.1698 46.9953 41.6285 47L41.6687 46.9697ZM29.9191 19.6618H36.4522V17.3861H29.9191V19.6618ZM18.7424 19.6618H25.1449V17.3861H18.7424V19.6618Z"/><path d="M33.2259 11.1356C32.919 11.1347 32.6152 11.0726 32.3323 10.9528C32.0493 10.833 31.7928 10.658 31.5775 10.4378C31.1323 9.94109 30.8853 9.29626 30.884 8.62736V8.06097H30.3815H23.9287V8.56668C23.934 8.94453 23.8762 9.32061 23.7578 9.67923C23.6394 9.9642 23.4651 10.2222 23.2452 10.4378C23.0291 10.6568 22.7732 10.8318 22.4914 10.9536C22.2065 11.0735 21.9007 11.1352 21.5919 11.1352C21.283 11.1352 20.9772 11.0735 20.6923 10.9536C20.1244 10.7063 19.6716 10.2506 19.4258 9.67923C19.3127 9.35385 19.2517 9.01247 19.2449 8.66782V8.10144H18.7424H14.8024C14.2037 8.05558 13.644 7.7848 13.2345 7.34289C13.028 7.15286 12.8633 6.92157 12.7508 6.66381C12.6383 6.40606 12.5805 6.12751 12.5811 5.846C12.5801 5.18697 12.8116 4.54896 13.2345 4.0457C13.652 3.59773 14.2234 3.32651 14.8325 3.28715H19.2449V2.35665C19.2449 1.73164 19.4917 1.13225 19.9309 0.690306C20.37 0.248363 20.9657 8.9688e-05 21.5868 8.9688e-05C22.2079 8.9688e-05 22.8036 0.248363 23.2428 0.690306C23.682 1.13225 23.9287 1.73164 23.9287 2.35665V3.28715H30.884V2.35665C30.8838 2.04416 30.9452 1.73474 31.0649 1.44639C31.3106 0.874977 31.7635 0.419255 32.3314 0.172011C32.9094 -0.057337 33.5524 -0.057337 34.1305 0.172011C34.4123 0.293736 34.6682 0.468864 34.8843 0.687836C35.1041 0.903414 35.2785 1.16141 35.3969 1.44639C35.5086 1.73676 35.5665 2.04527 35.5678 2.35665V3.28715H41.0154C41.6179 3.32178 42.1834 3.59005 42.5934 4.03558C42.9033 4.36965 43.1123 4.7856 43.196 5.2348C43.2797 5.68399 43.2346 6.14788 43.0659 6.5722C42.8972 6.99653 42.612 7.36377 42.2435 7.63099C41.8751 7.89821 41.4387 8.05436 40.9853 8.08119H35.5678V8.58689C35.5804 9.27464 35.3366 9.94221 34.8843 10.458C34.6662 10.6757 34.4073 10.8478 34.1226 10.9641C33.8379 11.0804 33.5332 11.1387 33.2259 11.1356Z"/></svg>