<svg viewBox="0 0 47 47" xmlns="http://www.w3.org/2000/svg"><path d="M4.7459 27.0893L7.65586 27.6676C8.38105 27.8145 9.12461 27.585 9.64785 27.0617L11.0615 25.648C12.1264 24.5832 13.9164 24.877 14.5865 26.2172L15.4402 27.9154C15.8809 28.7967 16.7805 29.3566 17.7719 29.3566C19.1672 29.3566 20.1678 28.0164 19.7639 26.6762L19.2131 24.8494C18.7908 23.4357 19.8465 22.0129 21.3244 22.0129H21.5355C22.7656 22.0129 23.9131 21.3979 24.5924 20.3789L25.5746 18.901C26.0887 18.1207 26.0611 17.1018 25.5012 16.3582L24.0232 14.3846C23.0777 13.127 23.7203 11.3094 25.2533 10.9238L26.8139 10.5291C27.5023 10.3547 28.0623 9.86816 28.3285 9.20723L29.834 5.45273C27.8512 4.78262 25.7215 4.40625 23.5 4.40625C12.9525 4.40625 4.40625 12.9525 4.40625 23.5C4.40625 24.7301 4.52559 25.9326 4.7459 27.0893ZM42.1715 27.5115C41.8961 27.484 41.6207 27.5023 41.3453 27.585L39.8949 27.9889C39.2799 28.1633 38.6281 27.9062 38.2885 27.3738L38.1049 27.0893C37.5541 26.2264 36.5994 25.7031 35.5713 25.7031C34.5432 25.7031 33.5885 26.2264 33.0377 27.0893L32.4777 27.9613C32.3492 28.1633 32.1656 28.3377 31.9545 28.4479L28.6406 30.3021C26.9791 31.2293 26.2998 33.2764 27.0801 35.0113L27.585 36.1496C28.3744 37.9121 30.4031 38.7658 32.2207 38.0865L32.4594 37.9947C33.3773 37.6551 34.4146 37.7928 35.2041 38.3711L35.3418 38.4721C38.7566 35.7641 41.226 31.9178 42.1715 27.5023V27.5115ZM0 23.5C0 17.2674 2.47589 11.2901 6.88299 6.88299C11.2901 2.47589 17.2674 0 23.5 0C29.7326 0 35.7099 2.47589 40.117 6.88299C44.5241 11.2901 47 17.2674 47 23.5C47 29.7326 44.5241 35.7099 40.117 40.117C35.7099 44.5241 29.7326 47 23.5 47C17.2674 47 11.2901 44.5241 6.88299 40.117C2.47589 35.7099 0 29.7326 0 23.5ZM13.2646 31.9545C13.0719 32.7439 13.5492 33.5426 14.3295 33.7354L17.267 34.4697C18.0564 34.6625 18.8551 34.1852 19.0479 33.4049C19.2406 32.6246 18.7633 31.8168 17.983 31.624L15.0455 30.8896C14.2561 30.6969 13.4574 31.1742 13.2646 31.9545ZM21.71 30.1186C21.5172 30.908 21.9945 31.7066 22.7748 31.8994C23.5551 32.0922 24.3629 31.6148 24.5557 30.8346L25.29 27.8971C25.4828 27.1076 25.0055 26.309 24.2252 26.1162C23.4449 25.9234 22.6371 26.4008 22.4443 27.1811L21.71 30.1186ZM31.5047 10.4373C30.7795 10.0701 29.8982 10.373 29.5311 11.0982L28.0623 14.0357C27.6951 14.7609 27.998 15.6422 28.7232 16.0094C29.4484 16.3766 30.3297 16.0736 30.6969 15.3484L32.1656 12.4109C32.5328 11.6857 32.2299 10.8045 31.5047 10.4373Z"/></svg>