<svg viewBox="0 0 47 47" xmlns="http://www.w3.org/2000/svg"><path d="M23.5 26.4375C27.0058 26.4375 30.3681 25.0448 32.8471 22.5658C35.3261 20.0868 36.7188 16.7246 36.7188 13.2188C36.7188 9.71292 35.3261 6.35068 32.8471 3.87168C30.3681 1.39269 27.0058 0 23.5 0C19.9942 0 16.6319 1.39269 14.1529 3.87168C11.6739 6.35068 10.2812 9.71292 10.2812 13.2188C10.2812 16.7246 11.6739 20.0868 14.1529 22.5658C16.6319 25.0448 19.9942 26.4375 23.5 26.4375ZM14.8068 29.375C6.62773 29.375 0 36.0027 0 44.1818C0 45.7424 1.2668 47 2.81816 47H44.1818C45.7424 47 47 45.7332 47 44.1818C47 36.0027 40.3723 29.375 32.1932 29.375H14.8068Z"/></svg>